<mxfile host="app.diagrams.net" modified="2023-10-20T02:57:34.577Z" agent="Mozilla/5.0 (Windows NT 10.0; Win64; x64) AppleWebKit/537.36 (KHTML, like Gecko) Chrome/118.0.0.0 Safari/537.36" version="22.0.0" etag="5P61hbizTTorAgm1RN6k" type="github">
  <diagram name="Page-1" id="0HUltifNlR5Tcn3X79Rr">
    <mxGraphModel>
      <root>
        <mxCell id="0" />
        <mxCell id="1" parent="0" />
      </root>
    </mxGraphModel>
  </diagram>
</mxfile>
